<svg width="3000" height="205" viewBox="0 0 3000 205" fill="none" xmlns="http://www.w3.org/2000/svg">
<g clip-path="url(#clip0_294_6261)">
<path d="M1020.32 100.594C1020.22 98.5743 1021.78 96.858 1023.8 96.7606L1039.34 96.0107C1041.36 95.9132 1043.08 97.4715 1043.18 99.4913L1047.41 187.26L1024.55 188.363L1020.32 100.594Z" fill="#A35F00"/>
<mask id="mask0_294_6261" style="mask-type:alpha" maskUnits="userSpaceOnUse" x="1023" y="95" width="27" height="100">
<path d="M1044.8 97.3532L1049.42 193.184L1028.49 194.194L1023.86 98.3632C1023.82 97.4785 1024.5 96.7266 1025.39 96.6839L1043.12 95.8285C1044 95.7858 1044.76 96.4685 1044.8 97.3532Z" fill="#A35F00"/>
</mask>
<g mask="url(#mask0_294_6261)">
<g style="mix-blend-mode:multiply" opacity="0.3">
<path fill-rule="evenodd" clip-rule="evenodd" d="M1037.51 129.213L1035.05 78.1481L1034.51 78.1739L1036.97 129.213C1036.79 130.476 1035.85 133.417 1034.46 136.73C1033.07 140.057 1031.25 143.722 1029.33 146.382C1028.08 148.113 1027.3 150.642 1026.92 153.618C1026.55 156.6 1026.57 160.055 1026.94 163.659C1027.68 170.865 1029.82 178.699 1032.98 184.572C1035.46 189.177 1036.31 196.715 1036.34 204.316C1036.38 211.901 1035.6 219.492 1034.87 224.162L1035.4 224.244C1036.13 219.551 1036.91 211.932 1036.88 204.313C1036.84 196.71 1036 189.051 1033.45 184.318C1030.33 178.52 1028.21 170.757 1027.47 163.605C1027.1 160.03 1027.08 156.617 1027.45 153.685C1027.83 150.749 1028.59 148.321 1029.76 146.695C1031.72 143.987 1033.56 140.279 1034.96 136.936C1036.35 133.598 1037.32 130.586 1037.51 129.264L1037.51 129.239L1037.51 129.213ZM1039.42 131.932L1037.43 78.0429L1036.9 78.0625L1038.88 131.931C1038.59 134.48 1036.88 141.217 1033.64 146.505C1032.59 148.224 1031.92 150.832 1031.57 153.933C1031.22 157.041 1031.19 160.671 1031.47 164.454C1032.01 172.015 1033.75 180.221 1036.49 186.116C1038.64 190.753 1039.78 197.864 1040.23 205.008C1040.68 212.144 1040.44 219.274 1039.86 223.929L1040.39 223.996C1040.98 219.303 1041.22 212.138 1040.76 204.974C1040.31 197.818 1039.17 190.623 1036.97 185.891C1034.27 180.073 1032.54 171.936 1032 164.415C1031.73 160.657 1031.75 157.061 1032.1 153.993C1032.45 150.918 1033.11 148.402 1034.1 146.783C1037.39 141.405 1039.12 134.57 1039.42 131.972L1039.42 131.952L1039.42 131.932ZM1036.28 161.143C1036.57 167.194 1037.31 173.728 1038.25 178.728C1038.72 181.232 1039.23 183.331 1039.75 184.788C1040.01 185.521 1040.26 186.061 1040.5 186.405C1040.69 186.687 1040.8 186.748 1040.83 186.762C1040.86 186.745 1040.97 186.673 1041.14 186.374C1041.33 186.009 1041.53 185.447 1041.72 184.693C1042.1 183.193 1042.41 181.054 1042.63 178.517C1043.08 173.449 1043.2 166.874 1042.9 160.823C1042.77 158.111 1042.68 155.378 1042.59 152.761C1042.48 149.484 1042.38 146.391 1042.21 143.755C1042.06 141.39 1041.87 139.438 1041.58 138.092C1041.44 137.414 1041.28 136.931 1041.12 136.633C1041.01 136.434 1040.94 136.38 1040.91 136.368C1040.9 136.371 1040.86 136.385 1040.79 136.432C1040.71 136.497 1040.59 136.607 1040.46 136.778C1040.2 137.121 1039.9 137.644 1039.6 138.341C1038.99 139.731 1038.37 141.721 1037.82 144.103C1036.74 148.867 1035.98 155.126 1036.28 161.143ZM1040.9 136.364C1040.9 136.365 1040.9 136.366 1040.91 136.366C1040.9 136.364 1040.9 136.364 1040.9 136.364ZM1035.74 161.168C1036.33 173.313 1038.73 187.402 1040.86 187.3C1042.99 187.197 1044.02 172.941 1043.44 160.797C1043.31 158.105 1043.22 155.376 1043.13 152.758C1042.81 143.564 1042.55 135.752 1040.89 135.832C1038.77 135.935 1035.16 149.024 1035.74 161.168Z" fill="#A35F00"/>
</g>
</g>
<path fill-rule="evenodd" clip-rule="evenodd" d="M1082.23 123.332C1082.39 123.088 1082.46 122.799 1082.43 122.509C1082.35 121.701 1082.14 120.046 1081.76 119.672C1081.26 119.172 1070.96 108.625 1070.96 108.625L995.742 112.255L997.111 140.641C997.146 141.369 997.765 141.93 998.493 141.895L1071.72 138.362C1072.14 138.342 1072.53 138.121 1072.76 137.768L1082.23 123.332Z" fill="#B22800"/>
<path d="M1081.65 119.392C1082.03 119.856 1082.06 120.507 1081.73 121.005L1072.58 134.959C1072.34 135.326 1071.94 135.556 1071.5 135.577L998.35 139.107C997.593 139.143 996.949 138.559 996.913 137.801L995.612 110.84C995.575 110.082 996.16 109.439 996.917 109.402L1070.07 105.872C1070.5 105.851 1070.93 106.041 1071.2 106.384L1081.65 119.392Z" fill="#F05323"/>
<g filter="url(#filter0_i_294_6261)">
<path d="M1007.5 129.544C1006.87 129.568 1006.29 129.512 1005.75 129.376C1005.22 129.231 1004.73 129.005 1004.3 128.7C1003.86 128.394 1003.47 128.02 1003.12 127.576L1004.38 126.034C1004.92 126.719 1005.43 127.188 1005.93 127.439C1006.43 127.69 1006.98 127.804 1007.59 127.781C1007.95 127.768 1008.27 127.704 1008.55 127.589C1008.84 127.464 1009.06 127.305 1009.22 127.112C1009.38 126.909 1009.45 126.683 1009.44 126.434C1009.44 126.258 1009.39 126.099 1009.32 125.956C1009.25 125.803 1009.14 125.672 1009.01 125.563C1008.87 125.444 1008.7 125.336 1008.49 125.24C1008.29 125.144 1008.07 125.064 1007.82 125.001C1007.56 124.938 1007.29 124.881 1006.98 124.83C1006.41 124.737 1005.91 124.606 1005.47 124.435C1005.04 124.254 1004.68 124.029 1004.37 123.761C1004.07 123.481 1003.85 123.168 1003.7 122.821C1003.55 122.463 1003.47 122.056 1003.45 121.6C1003.43 121.144 1003.52 120.72 1003.7 120.329C1003.89 119.938 1004.16 119.596 1004.5 119.302C1004.84 119.009 1005.25 118.776 1005.71 118.603C1006.17 118.43 1006.67 118.333 1007.21 118.313C1007.82 118.289 1008.36 118.341 1008.85 118.469C1009.34 118.595 1009.77 118.797 1010.15 119.073C1010.53 119.339 1010.85 119.67 1011.1 120.065L1009.81 121.437C1009.6 121.124 1009.35 120.868 1009.08 120.671C1008.82 120.463 1008.53 120.313 1008.23 120.22C1007.92 120.118 1007.6 120.073 1007.27 120.085C1006.9 120.099 1006.57 120.163 1006.3 120.278C1006.03 120.392 1005.83 120.55 1005.68 120.753C1005.53 120.945 1005.46 121.176 1005.47 121.446C1005.48 121.653 1005.53 121.838 1005.63 122C1005.73 122.152 1005.87 122.287 1006.04 122.405C1006.22 122.523 1006.44 122.623 1006.72 122.707C1006.99 122.79 1007.3 122.861 1007.64 122.921C1008.22 123.013 1008.74 123.149 1009.2 123.329C1009.66 123.498 1010.06 123.712 1010.39 123.969C1010.72 124.216 1010.98 124.508 1011.16 124.843C1011.34 125.169 1011.43 125.539 1011.45 125.954C1011.48 126.669 1011.33 127.292 1011.01 127.823C1010.69 128.344 1010.24 128.755 1009.64 129.059C1009.03 129.351 1008.32 129.513 1007.5 129.544ZM1018.15 129.079C1017.29 129.112 1016.52 128.959 1015.83 128.622C1015.14 128.274 1014.59 127.786 1014.17 127.159C1013.76 126.52 1013.54 125.791 1013.51 124.972L1013.26 118.255L1015.3 118.178L1015.55 124.755C1015.56 125.243 1015.69 125.674 1015.92 126.049C1016.16 126.414 1016.48 126.703 1016.86 126.917C1017.24 127.131 1017.65 127.23 1018.08 127.213C1018.56 127.195 1018.99 127.065 1019.36 126.822C1019.74 126.58 1020.02 126.268 1020.23 125.886C1020.44 125.494 1020.54 125.055 1020.52 124.567L1020.27 117.99L1022.23 117.916L1022.49 124.633C1022.52 125.452 1022.35 126.196 1021.98 126.864C1021.62 127.521 1021.11 128.049 1020.45 128.447C1019.79 128.836 1019.02 129.046 1018.15 129.079ZM1025.44 128.71L1025.03 117.826L1026.94 117.753L1031.15 124.057L1030.03 124.083L1033.8 117.494L1035.62 117.426L1036.03 128.31L1034.03 128.386L1033.87 124.296C1033.84 123.363 1033.83 122.523 1033.84 121.775C1033.86 121.027 1033.92 120.282 1034 119.542L1034.28 120.201L1031.1 125.538L1030.07 125.577L1026.61 120.538L1026.8 119.814C1026.94 120.504 1027.05 121.217 1027.12 121.951C1027.2 122.675 1027.26 123.539 1027.29 124.545L1027.45 128.634L1025.44 128.71ZM1038.96 128.199L1038.55 117.315L1040.46 117.243L1044.67 123.546L1043.55 123.573L1047.32 116.984L1049.13 116.915L1049.55 127.799L1047.54 127.875L1047.39 123.786C1047.35 122.853 1047.34 122.012 1047.35 121.264C1047.38 120.516 1047.43 119.772 1047.52 119.031L1047.79 119.691L1044.61 125.027L1043.59 125.066L1040.13 120.027L1040.32 119.303C1040.46 119.994 1040.56 120.706 1040.63 121.44C1040.71 122.164 1040.77 123.029 1040.81 124.034L1040.96 128.124L1038.96 128.199ZM1052.15 127.701L1052.08 125.913L1053.87 125.845L1053.59 118.537L1051.8 118.605L1051.73 116.817L1057.33 116.605L1057.4 118.393L1055.61 118.461L1055.89 125.769L1057.68 125.701L1057.74 127.49L1052.15 127.701ZM1062.5 127.31L1062.16 118.291L1059.05 118.409L1058.98 116.543L1067.31 116.228L1067.38 118.094L1064.18 118.215L1064.52 127.233L1062.5 127.31Z" fill="#EFFAE9"/>
</g>
<path fill-rule="evenodd" clip-rule="evenodd" d="M2137 130.758C2126.22 129.59 2112.83 131.507 2112.83 131.507C2112.83 131.507 2123.61 114.789 2121.77 110.72C2119.93 106.651 2097.64 107.598 2097.64 107.598C2097.64 107.598 2098.18 89.8493 2092.37 83.7989C2086.55 77.7486 2057.71 85.8704 2057.71 85.8704C2057.71 85.8704 2058.84 63.2296 2050.66 63.2814C2042.47 63.3331 2027.5 81.8024 2027.5 81.8024C2027.5 81.8024 2031.09 57.415 2024.85 54.4124C2020.18 52.1663 2007.39 62.066 2000.78 67.1826C1998.55 68.9059 1997.03 70.0866 1996.75 70.078C1996.44 68.7665 1996.19 67.5335 1995.94 66.3495C1994.63 60.0175 1993.61 55.0856 1986.41 47.0305C1979.3 48.4646 1969.74 62.359 1965.85 69.1269C1963.83 62.8659 1956.27 50.0288 1942.17 48.7683C1932.23 55.901 1933.27 86.721 1935.03 101.239C1928.14 97.9277 1912.78 92.0826 1906.5 95.1954C1900.97 102.464 1903.43 122.996 1905.35 132.354C1899.2 131.338 1885.61 139.667 1879.59 143.958C1881.57 139.542 1884.46 129.437 1880.19 124.347C1873.16 123.304 1861.6 130.318 1856.7 133.956C1857.4 123.301 1857.49 101.126 1852.29 97.6596C1837.28 97.1976 1822.6 117.409 1817.13 127.572C1816.17 122.721 1812.74 112.353 1806.63 109.685C1799.57 109.468 1793.74 121.686 1791.71 127.823C1785.23 123.146 1770.93 113.959 1765.61 114.621C1760.28 115.284 1759.79 136.138 1760.21 146.483C1755.87 143.938 1746.74 139.043 1744.95 139.814C1741.36 141.357 1740.09 154.129 1739.9 160.322C1736.38 155.048 1724.92 144.364 1707.26 143.82C1705.69 149.433 1706.08 163.136 1706.28 170.491C1706.31 171.59 1706.34 172.547 1706.36 173.315C1695.72 170.505 1679.54 184.076 1680.08 187.403C1680.96 192.853 1691.75 192.208 1700.65 191.675C1706.5 191.325 1711.53 191.023 1712.39 192.536L2020.31 202.013L2042.65 202.278C2047.23 205.298 2057.18 204.326 2065.72 203.493C2072.92 202.791 2079.11 202.186 2080.23 204.155H2161.21L2167.77 204.357C2167.76 204.29 2167.74 204.222 2167.73 204.155H2460.18H2538.5C2538.5 204.155 2558 185.5 2556.5 171.5C2555 157.5 2530.5 145 2530.5 145C2530.5 145 2543 125 2543 115.5C2543 106 2511 98 2511 98C2511 98 2529.43 79.5 2527.5 70C2525.57 60.5 2495.5 58 2495.5 58C2495.5 58 2504 30.3256 2497 25.5C2490 20.6744 2460.18 42.5 2460.18 42.5C2460.18 42.5 2469 17 2460.18 8.4258C2453.32 1.74823 2437.32 18.7545 2429.94 26.6048C2427.84 28.8345 2426.44 30.3256 2426.14 30.3256C2425.71 28.6006 2425.35 26.9776 2425 25.4189C2423.14 17.0836 2421.7 10.5914 2412.52 0.213379C2403.8 2.40336 2392.55 21.2007 2388.01 30.3256C2385.28 22.1132 2375.48 5.41458 2358.05 4.31959C2346.06 14.1745 2348.51 54.963 2351.24 74.1253C2342.61 70.0191 2323.46 62.9017 2315.83 67.2816C2309.29 77.1366 2313.11 104.238 2315.83 116.556C2308.2 115.461 2291.77 127.05 2284.51 132.981C2286.78 127.05 2289.96 113.545 2284.51 106.975C2275.79 105.88 2261.81 115.644 2255.91 120.662C2256.36 106.519 2255.64 77.1366 2249.1 72.7566C2230.58 72.7566 2213.24 100.131 2206.88 113.819C2205.52 107.431 2200.89 93.8351 2193.27 90.5502C2184.55 90.5502 2177.83 106.975 2175.56 115.187C2167.39 109.256 2149.41 97.6675 2142.88 98.7625C2137.76 99.6206 2136.76 116.784 2137 130.758Z" fill="#00283D"/>
<path fill-rule="evenodd" clip-rule="evenodd" d="M2137 130.758C2126.22 129.59 2112.83 131.507 2112.83 131.507C2112.83 131.507 2123.61 114.789 2121.77 110.72C2119.93 106.651 2097.64 107.598 2097.64 107.598C2097.64 107.598 2098.18 89.8493 2092.37 83.7989C2086.55 77.7486 2057.71 85.8704 2057.71 85.8704C2057.71 85.8704 2058.84 63.2296 2050.66 63.2814C2042.47 63.3331 2027.5 81.8024 2027.5 81.8024C2027.5 81.8024 2031.09 57.415 2024.85 54.4124C2020.18 52.1663 2007.39 62.066 2000.78 67.1826C1998.55 68.9059 1997.03 70.0866 1996.75 70.078C1996.44 68.7665 1996.19 67.5335 1995.94 66.3495C1994.63 60.0175 1993.61 55.0856 1986.41 47.0305C1979.3 48.4646 1969.74 62.359 1965.85 69.1269C1963.83 62.8659 1956.27 50.0288 1942.17 48.7683C1932.23 55.901 1933.27 86.721 1935.03 101.239C1928.14 97.9277 1912.78 92.0826 1906.5 95.1954C1900.97 102.464 1903.43 122.996 1905.35 132.354C1899.2 131.338 1885.61 139.667 1879.59 143.958C1881.57 139.542 1884.46 129.437 1880.19 124.347C1873.16 123.304 1861.6 130.318 1856.7 133.956C1857.4 123.301 1857.49 101.126 1852.29 97.6596C1837.28 97.1976 1822.6 117.409 1817.13 127.572C1816.17 122.721 1812.74 112.353 1806.63 109.685C1799.57 109.468 1793.74 121.686 1791.71 127.823C1785.23 123.146 1770.93 113.959 1765.61 114.621C1760.28 115.284 1759.79 136.138 1760.21 146.483C1755.87 143.938 1746.74 139.043 1744.95 139.814C1741.36 141.357 1740.09 154.129 1739.9 160.322C1736.38 155.048 1724.92 144.364 1707.26 143.82C1705.69 149.433 1706.08 163.136 1706.28 170.491C1706.31 171.59 1706.34 172.547 1706.36 173.315C1695.72 170.505 1679.54 184.076 1680.08 187.403C1680.96 192.853 1691.75 192.208 1700.65 191.675C1706.5 191.325 1711.53 191.023 1712.39 192.536L2020.31 202.013L2042.65 202.278C2047.23 205.298 2057.18 204.326 2065.72 203.493C2072.92 202.791 2079.11 202.186 2080.23 204.155H2161.21L2167.77 204.357C2167.76 204.29 2167.74 204.222 2167.73 204.155H2460.18H2538.5C2538.5 204.155 2558 185.5 2556.5 171.5C2555 157.5 2530.5 145 2530.5 145C2530.5 145 2543 125 2543 115.5C2543 106 2511 98 2511 98C2511 98 2529.43 79.5 2527.5 70C2525.57 60.5 2495.5 58 2495.5 58C2495.5 58 2504 30.3256 2497 25.5C2490 20.6744 2460.18 42.5 2460.18 42.5C2460.18 42.5 2469 17 2460.18 8.4258C2453.32 1.74823 2437.32 18.7545 2429.94 26.6048C2427.84 28.8345 2426.44 30.3256 2426.14 30.3256C2425.71 28.6006 2425.35 26.9776 2425 25.4189C2423.14 17.0836 2421.7 10.5914 2412.52 0.213379C2403.8 2.40336 2392.55 21.2007 2388.01 30.3256C2385.28 22.1132 2375.48 5.41458 2358.05 4.31959C2346.06 14.1745 2348.51 54.963 2351.24 74.1253C2342.61 70.0191 2323.46 62.9017 2315.83 67.2816C2309.29 77.1366 2313.11 104.238 2315.83 116.556C2308.2 115.461 2291.77 127.05 2284.51 132.981C2286.78 127.05 2289.96 113.545 2284.51 106.975C2275.79 105.88 2261.81 115.644 2255.91 120.662C2256.36 106.519 2255.64 77.1366 2249.1 72.7566C2230.58 72.7566 2213.24 100.131 2206.88 113.819C2205.52 107.431 2200.89 93.8351 2193.27 90.5502C2184.55 90.5502 2177.83 106.975 2175.56 115.187C2167.39 109.256 2149.41 97.6675 2142.88 98.7625C2137.76 99.6206 2136.76 116.784 2137 130.758Z" fill="url(#paint0_linear_294_6261)"/>
<path fill-rule="evenodd" clip-rule="evenodd" d="M2137 130.758C2126.22 129.59 2112.83 131.507 2112.83 131.507C2112.83 131.507 2123.61 114.789 2121.77 110.72C2119.93 106.651 2097.64 107.598 2097.64 107.598C2097.64 107.598 2098.18 89.8493 2092.37 83.7989C2086.55 77.7486 2057.71 85.8704 2057.71 85.8704C2057.71 85.8704 2058.84 63.2296 2050.66 63.2814C2042.47 63.3331 2027.5 81.8024 2027.5 81.8024C2027.5 81.8024 2031.09 57.415 2024.85 54.4124C2020.18 52.1663 2007.39 62.066 2000.78 67.1826C1998.55 68.9059 1997.03 70.0866 1996.75 70.078C1996.44 68.7665 1996.19 67.5335 1995.94 66.3495C1994.63 60.0175 1993.61 55.0856 1986.41 47.0305C1979.3 48.4646 1969.74 62.359 1965.85 69.1269C1963.83 62.8659 1956.27 50.0288 1942.17 48.7683C1932.23 55.901 1933.27 86.721 1935.03 101.239C1928.14 97.9277 1912.78 92.0826 1906.5 95.1954C1900.97 102.464 1903.43 122.996 1905.35 132.354C1899.2 131.338 1885.61 139.667 1879.59 143.958C1881.57 139.542 1884.46 129.437 1880.19 124.347C1873.16 123.304 1861.6 130.318 1856.7 133.956C1857.4 123.301 1857.49 101.126 1852.29 97.6596C1837.28 97.1976 1822.6 117.409 1817.13 127.572C1816.17 122.721 1812.74 112.353 1806.63 109.685C1799.57 109.468 1793.74 121.686 1791.71 127.823C1785.23 123.146 1770.93 113.959 1765.61 114.621C1760.28 115.284 1759.79 136.138 1760.21 146.483C1755.87 143.938 1746.74 139.043 1744.95 139.814C1741.36 141.357 1740.09 154.129 1739.9 160.322C1736.38 155.048 1724.92 144.364 1707.26 143.82C1705.69 149.433 1706.08 163.136 1706.28 170.491C1706.31 171.59 1706.34 172.547 1706.36 173.315C1695.72 170.505 1679.54 184.076 1680.08 187.403C1680.96 192.853 1691.75 192.208 1700.65 191.675C1706.5 191.325 1711.53 191.023 1712.39 192.536L2020.31 202.013L2042.65 202.278C2047.23 205.298 2057.18 204.326 2065.72 203.493C2072.92 202.791 2079.11 202.186 2080.23 204.155H2161.21L2167.77 204.357C2167.76 204.29 2167.74 204.222 2167.73 204.155H2460.18H2538.5C2538.5 204.155 2558 185.5 2556.5 171.5C2555 157.5 2530.5 145 2530.5 145C2530.5 145 2543 125 2543 115.5C2543 106 2511 98 2511 98C2511 98 2529.43 79.5 2527.5 70C2525.57 60.5 2495.5 58 2495.5 58C2495.5 58 2504 30.3256 2497 25.5C2490 20.6744 2460.18 42.5 2460.18 42.5C2460.18 42.5 2469 17 2460.18 8.4258C2453.32 1.74823 2437.32 18.7545 2429.94 26.6048C2427.84 28.8345 2426.44 30.3256 2426.14 30.3256C2425.71 28.6006 2425.35 26.9776 2425 25.4189C2423.14 17.0836 2421.7 10.5914 2412.52 0.213379C2403.8 2.40336 2392.55 21.2007 2388.01 30.3256C2385.28 22.1132 2375.48 5.41458 2358.05 4.31959C2346.06 14.1745 2348.51 54.963 2351.24 74.1253C2342.61 70.0191 2323.46 62.9017 2315.83 67.2816C2309.29 77.1366 2313.11 104.238 2315.83 116.556C2308.2 115.461 2291.77 127.05 2284.51 132.981C2286.78 127.05 2289.96 113.545 2284.51 106.975C2275.79 105.88 2261.81 115.644 2255.91 120.662C2256.36 106.519 2255.64 77.1366 2249.1 72.7566C2230.58 72.7566 2213.24 100.131 2206.88 113.819C2205.52 107.431 2200.89 93.8351 2193.27 90.5502C2184.55 90.5502 2177.83 106.975 2175.56 115.187C2167.39 109.256 2149.41 97.6675 2142.88 98.7625C2137.76 99.6206 2136.76 116.784 2137 130.758Z" fill="url(#paint1_linear_294_6261)"/>
<path d="M914.987 147.391C918.64 141.917 930.527 130.83 948.853 130.266C950.726 136.961 949.92 154.747 949.795 160.874C960.827 157.958 977.618 172.042 977.06 175.495C975.545 184.869 945.785 176.864 943.531 180.821L623.989 190.656L503.539 192.086L470.954 193.089C474.32 177.332 484.5 178.5 484.5 178.5C481.19 177.656 461 181.5 469.5 170C478 158.5 503.539 150 503.539 150C503.539 150 487.211 136.088 489.103 124.141C490.996 112.193 527.969 117.488 527.969 117.488C527.969 117.488 515.5 97.9998 520.5 90.9998C525.5 83.9998 552.5 89.2126 552.5 89.2126C552.5 89.2126 549.965 64.4915 556 58.2126C562.036 51.9338 585.173 70.128 585.173 70.128C585.173 70.128 583.997 46.6323 592.492 46.686C600.987 46.7397 616.526 65.9063 616.526 65.9063C616.526 65.9063 612.802 40.5981 619.275 37.4822C625.747 34.3662 647.29 53.7745 648.435 53.7393C650.462 45.0996 650.297 39.7438 659.163 29.8215C666.545 31.3097 676.466 45.7287 680.504 52.7522C682.596 46.2548 690.44 32.933 705.074 31.6249C715.39 39.027 714.311 71.0107 712.482 86.0773C719.637 82.6406 735.575 76.5748 742.094 79.805C747.829 87.3481 745.275 108.656 743.281 118.366C749.669 117.312 763.768 125.956 770.019 130.409C767.967 125.826 764.97 115.34 769.393 110.058C776.696 108.975 788.69 116.254 793.774 120.029C793.051 108.972 792.954 85.9592 798.346 82.3623C813.922 81.8829 829.165 102.857 834.84 113.404C835.831 108.37 839.398 97.6101 845.732 94.842C853.062 94.6164 859.108 107.296 861.215 113.664C867.944 108.811 882.783 99.2768 888.307 99.9645C893.831 100.652 894.344 122.294 893.91 133.029C898.414 130.389 907.888 125.308 909.746 126.109C913.464 127.71 914.789 140.964 914.987 147.391Z" fill="#EFFAE9"/>
<path d="M914.987 147.391C918.64 141.917 930.527 130.83 948.853 130.266C950.726 136.961 949.92 154.747 949.795 160.874C960.827 157.958 977.618 172.042 977.06 175.495C975.545 184.869 945.785 176.864 943.531 180.821L623.989 190.656L503.539 192.086L470.954 193.089C474.32 177.332 484.5 178.5 484.5 178.5C481.19 177.656 461 181.5 469.5 170C478 158.5 503.539 150 503.539 150C503.539 150 487.211 136.088 489.103 124.141C490.996 112.193 527.969 117.488 527.969 117.488C527.969 117.488 515.5 97.9998 520.5 90.9998C525.5 83.9998 552.5 89.2126 552.5 89.2126C552.5 89.2126 549.965 64.4915 556 58.2126C562.036 51.9338 585.173 70.128 585.173 70.128C585.173 70.128 583.997 46.6323 592.492 46.686C600.987 46.7397 616.526 65.9063 616.526 65.9063C616.526 65.9063 612.802 40.5981 619.275 37.4822C625.747 34.3662 647.29 53.7745 648.435 53.7393C650.462 45.0996 650.297 39.7438 659.163 29.8215C666.545 31.3097 676.466 45.7287 680.504 52.7522C682.596 46.2548 690.44 32.933 705.074 31.6249C715.39 39.027 714.311 71.0107 712.482 86.0773C719.637 82.6406 735.575 76.5748 742.094 79.805C747.829 87.3481 745.275 108.656 743.281 118.366C749.669 117.312 763.768 125.956 770.019 130.409C767.967 125.826 764.97 115.34 769.393 110.058C776.696 108.975 788.69 116.254 793.774 120.029C793.051 108.972 792.954 85.9592 798.346 82.3623C813.922 81.8829 829.165 102.857 834.84 113.404C835.831 108.37 839.398 97.6101 845.732 94.842C853.062 94.6164 859.108 107.296 861.215 113.664C867.944 108.811 882.783 99.2768 888.307 99.9645C893.831 100.652 894.344 122.294 893.91 133.029C898.414 130.389 907.888 125.308 909.746 126.109C913.464 127.71 914.789 140.964 914.987 147.391Z" fill="url(#paint2_linear_294_6261)"/>
<path d="M914.987 147.391C918.64 141.917 930.527 130.83 948.853 130.266C950.726 136.961 949.92 154.747 949.795 160.874C960.827 157.958 977.618 172.042 977.06 175.495C975.545 184.869 945.785 176.864 943.531 180.821L623.989 190.656L503.539 192.086L470.954 193.089C474.32 177.332 484.5 178.5 484.5 178.5C481.19 177.656 461 181.5 469.5 170C478 158.5 503.539 150 503.539 150C503.539 150 487.211 136.088 489.103 124.141C490.996 112.193 527.969 117.488 527.969 117.488C527.969 117.488 515.5 97.9998 520.5 90.9998C525.5 83.9998 552.5 89.2126 552.5 89.2126C552.5 89.2126 549.965 64.4915 556 58.2126C562.036 51.9338 585.173 70.128 585.173 70.128C585.173 70.128 583.997 46.6323 592.492 46.686C600.987 46.7397 616.526 65.9063 616.526 65.9063C616.526 65.9063 612.802 40.5981 619.275 37.4822C625.747 34.3662 647.29 53.7745 648.435 53.7393C650.462 45.0996 650.297 39.7438 659.163 29.8215C666.545 31.3097 676.466 45.7287 680.504 52.7522C682.596 46.2548 690.44 32.933 705.074 31.6249C715.39 39.027 714.311 71.0107 712.482 86.0773C719.637 82.6406 735.575 76.5748 742.094 79.805C747.829 87.3481 745.275 108.656 743.281 118.366C749.669 117.312 763.768 125.956 770.019 130.409C767.967 125.826 764.97 115.34 769.393 110.058C776.696 108.975 788.69 116.254 793.774 120.029C793.051 108.972 792.954 85.9592 798.346 82.3623C813.922 81.8829 829.165 102.857 834.84 113.404C835.831 108.37 839.398 97.6101 845.732 94.842C853.062 94.6164 859.108 107.296 861.215 113.664C867.944 108.811 882.783 99.2768 888.307 99.9645C893.831 100.652 894.344 122.294 893.91 133.029C898.414 130.389 907.888 125.308 909.746 126.109C913.464 127.71 914.789 140.964 914.987 147.391Z" fill="url(#paint3_linear_294_6261)"/>
<path d="M1186.69 182.213C982.186 182.213 127 164.046 -45 155.213V204.213H2999.5V169.713C2713.5 169.713 1391.19 182.213 1186.69 182.213Z" fill="#EFFAE9"/>
<path d="M1186.69 182.213C982.186 182.213 127 164.046 -45 155.213V204.213H2999.5V169.713C2713.5 169.713 1391.19 182.213 1186.69 182.213Z" fill="url(#paint4_linear_294_6261)"/>
<mask id="mask1_294_6261" style="mask-type:alpha" maskUnits="userSpaceOnUse" x="1837" y="45" width="172" height="142">
<path d="M1981.16 89.2739L2008.23 185.308L1919.53 186.087L1882.6 178.525L1868.55 182.572C1868.55 182.572 1845.58 179.697 1837.61 177.163C1845.6 169.192 1869.61 78.8377 1877.89 45.6213C1918.76 77.2922 1963.77 87.9192 1981.16 89.2739Z" fill="#D9D9D9"/>
<path d="M1981.16 89.2739L2008.23 185.308L1919.53 186.087L1882.6 178.525L1868.55 182.572C1868.55 182.572 1845.58 179.697 1837.61 177.163C1845.6 169.192 1869.61 78.8377 1877.89 45.6213C1918.76 77.2922 1963.77 87.9192 1981.16 89.2739Z" fill="url(#paint5_linear_294_6261)"/>
<path d="M1981.16 89.2739L2008.23 185.308L1919.53 186.087L1882.6 178.525L1868.55 182.572C1868.55 182.572 1845.58 179.697 1837.61 177.163C1845.6 169.192 1869.61 78.8377 1877.89 45.6213C1918.76 77.2922 1963.77 87.9192 1981.16 89.2739Z" fill="url(#paint6_linear_294_6261)"/>
</mask>
<g mask="url(#mask1_294_6261)">
<path d="M1981.17 89.2739L2008.23 185.308L1919.54 186.087L1882.61 178.525L1868.56 182.572C1868.56 182.572 1845.89 176.87 1837.61 177.163C1845.6 169.192 1869.61 78.8378 1877.9 45.6213C1918.77 77.2922 1963.77 87.9192 1981.17 89.2739Z" fill="#D9D9D9"/>
<path d="M1981.17 89.2739L2008.23 185.308L1919.54 186.087L1882.61 178.525L1868.56 182.572C1868.56 182.572 1845.89 176.87 1837.61 177.163C1845.6 169.192 1869.61 78.8378 1877.9 45.6213C1918.77 77.2922 1963.77 87.9192 1981.17 89.2739Z" fill="url(#paint7_linear_294_6261)"/>
<path d="M1981.17 89.2739L2008.23 185.308L1919.54 186.087L1882.61 178.525L1868.56 182.572C1868.56 182.572 1845.89 176.87 1837.61 177.163C1845.6 169.192 1869.61 78.8378 1877.9 45.6213C1918.77 77.2922 1963.77 87.9192 1981.17 89.2739Z" fill="url(#paint8_linear_294_6261)"/>
<path d="M1878.41 43.8286L1835.26 177.838L1871.52 183.058L1878.61 182.807L1922.68 191.299C1903.61 160.747 1885.23 80.2555 1878.41 43.8286Z" fill="#D9D9D9"/>
<path d="M1878.41 43.8286L1835.26 177.838L1871.52 183.058L1878.61 182.807L1922.68 191.299C1903.61 160.747 1885.23 80.2555 1878.41 43.8286Z" fill="url(#paint9_linear_294_6261)"/>
<path d="M1868.4 183.58C1867.74 178.389 1861.01 168.361 1859.15 165.982C1863.68 159.955 1874.98 111.644 1878.22 86.2706L1876.18 128.713L1868.4 183.58Z" fill="#FFEA83"/>
<path d="M1868.4 183.58C1867.74 178.389 1861.01 168.361 1859.15 165.982C1863.68 159.955 1874.98 111.644 1878.22 86.2706L1876.18 128.713L1868.4 183.58Z" fill="url(#paint10_linear_294_6261)"/>
<path d="M1878.04 86.6459C1878.27 93.1355 1871.46 154.232 1868.4 183.58L1883.1 179.871C1881.9 145.801 1877.83 80.8053 1878.04 86.6459Z" fill="#734021"/>
</g>
<path d="M1985.8 155.644C1985.58 153.824 1989.7 150.375 1991.79 148.877C1992.16 149.739 1992.81 151.562 1992.42 151.952C1987.51 155.486 1989.23 157.769 1990.13 160.191C1991.27 163.259 1993.79 167.596 1994.14 169.274C1994.48 170.951 1991.7 184.342 1991.97 185.646C1992.18 186.69 1996.73 187.063 1998.97 187.12C1999.53 188.105 2000.59 190.185 2000.37 190.619C1998.35 192.104 1990.26 190.562 1989.37 189.093C1988.49 187.624 1990.44 178.192 1990.6 174.759C1990.73 172.202 1986.07 157.919 1985.8 155.644Z" fill="#004F66"/>
<path d="M2025.51 184.285C2017.79 190.222 2005.56 191.656 1999.75 191.719C1995.43 191.965 1993.47 187.182 1993.09 184.833C1992.7 182.485 1990.21 151.922 1991.22 150.256C1992.24 148.59 2012.73 144.154 2014.52 145.466C2015.55 146.225 2032.83 175.981 2025.51 184.285Z" fill="url(#paint11_linear_294_6261)"/>
<mask id="mask2_294_6261" style="mask-type:alpha" maskUnits="userSpaceOnUse" x="1990" y="145" width="38" height="47">
<path d="M2025.51 184.285C2017.79 190.222 2005.56 191.656 1999.75 191.719C1995.43 191.965 1993.47 187.182 1993.09 184.833C1992.7 182.485 1990.21 151.922 1991.22 150.256C1992.24 148.59 2012.73 144.154 2014.52 145.466C2015.55 146.225 2032.83 175.981 2025.51 184.285Z" fill="#078BA8"/>
</mask>
<g mask="url(#mask2_294_6261)">
<path opacity="0.6" d="M2005.63 185.363C2004.48 179.772 1993.48 160.765 1990.42 150.615C1990.64 159.568 1992.39 183.501 1993.89 187.777C1995.76 193.121 2000.03 192.146 2002.49 191.835C2004.95 191.523 2006.35 188.87 2005.63 185.363Z" fill="#05637F"/>
</g>
<path d="M1998.04 158.372C1996.95 158.751 1994.7 158.346 1993.71 158.097C1991.39 157.706 1989.83 151.514 1991.42 149.341C1993.01 147.168 2011.45 143.767 2014.6 143.992C2017.76 144.218 2020 146.183 2020.41 148.14C2020.81 150.097 2020.02 152.045 2018.87 152.924C2016.77 154.521 1999.4 157.898 1998.04 158.372Z" fill="url(#paint12_linear_294_6261)"/>
<path d="M1998.04 158.372C1996.95 158.751 1994.7 158.346 1993.71 158.097C1991.39 157.706 1989.83 151.514 1991.42 149.341C1993.01 147.168 2011.45 143.767 2014.6 143.992C2017.76 144.218 2020 146.183 2020.41 148.14C2020.81 150.097 2020.02 152.045 2018.87 152.924C2016.77 154.521 1999.4 157.898 1998.04 158.372Z" fill="url(#paint13_linear_294_6261)"/>
<path opacity="0.5" d="M1992.47 150.52C1991.73 150.847 1991.94 152.82 1992.13 153.766C1991.18 152.538 1991.81 148.793 1992.83 149.35C1998.45 153.234 1996.21 156.981 1995.55 157.665C1995.02 158.212 1994.23 157.754 1993.9 157.456C1994.68 157.843 1996 156.475 1995.95 154.735C1995.89 152.994 1993.39 150.112 1992.47 150.52Z" fill="#05637F"/>
<path opacity="0.5" d="M1993.12 152.098C1992.15 152.299 1992.39 154.381 1993.27 155.66C1993.94 156.644 1995.12 155.365 1995.13 154.38C1995.13 153.257 1994.26 151.865 1993.12 152.098Z" fill="#05637F"/>
<path d="M2013.87 183.195C2014.9 179.819 2013.06 173.518 2011.28 170.601L2013.34 169.695C2013.47 169.83 2014.18 170.816 2015.64 173.758C2019.86 184.764 2015.43 189.824 2013.9 190.429C2012.67 190.914 2009.45 191.44 2008 191.643C2007.75 191.533 2007.37 191.251 2007.86 190.995C2008.48 190.674 2012.59 187.416 2013.87 183.195Z" fill="#004F66"/>
<path d="M2022.49 182.38C2022.8 178.865 2021.82 170.088 2018.9 166.804L2021.14 166.344C2021.26 166.479 2023.27 169.665 2024.2 172.708C2026.56 180.476 2025.61 185.236 2024.23 186.102C2023.11 186.805 2021.07 188.013 2019.62 188.216C2019.37 188.107 2019.03 188.01 2019.52 187.754C2020.14 187.434 2022.3 184.641 2022.49 182.38Z" fill="#004F66"/>
<path d="M2001.72 138.969C2000.14 138.828 1999.62 143.868 1999.56 146.405L1996.58 147.018C1997.05 144.298 1998.69 138.601 2001.43 137.571C2004.17 136.542 2007.54 141.754 2008.88 144.49L2006.08 145.064C2005.29 143.091 2003.3 139.11 2001.72 138.969Z" fill="#F5A300"/>
<path d="M2002.02 138.519C2000.04 138.344 1999.06 143.983 1999 146.52L1996.58 147.018C1997.05 144.298 1998.69 138.601 2001.43 137.571C2004.17 136.542 2007.54 141.754 2008.88 144.49L2007.11 144.854C2006.31 142.88 2003.99 138.695 2002.02 138.519Z" fill="#FFBF00"/>
<path d="M1994.45 147.067C1994.11 147.293 1994.41 147.658 1994.6 147.813C1999.54 146.797 2003.6 156.159 2003.89 157.072C2004.17 157.984 2011.33 173.411 2011.5 173.765C2011.67 174.118 2015.6 172.922 2015.93 172.659C2016.26 172.396 2011.74 166.432 2007.24 156.382C2002.76 146.363 1998.8 145.89 1998.48 145.852L1998.47 145.852C1998.17 145.816 1994.88 146.785 1994.45 147.067Z" fill="#05637F"/>
<path d="M2007.22 144.443C2006.87 144.668 2007.18 145.034 2007.37 145.188C2011.59 145.874 2013.34 155.808 2014.62 158.749C2015.73 161.277 2019.57 170.065 2019.74 170.419C2019.91 170.772 2023.88 169.277 2024.21 169.014C2024.55 168.751 2019.05 163.42 2016.12 152.808C2014.6 147.295 2011.47 143.86 2011.17 143.824C2010.87 143.789 2007.64 144.161 2007.22 144.443Z" fill="#05637F"/>
<path d="M2004.89 159.451C2004.83 159.538 2005.28 160.514 2005.51 160.992C2006.01 162.135 2007.05 164.471 2007.23 164.674C2007.47 164.927 2010.53 163.591 2010.8 163.454C2011.07 163.317 2008.8 158.564 2008.65 158.202C2008.5 157.84 2004.97 159.342 2004.89 159.451Z" fill="#FFBF00"/>
<path d="M2013.96 157.097C2013.89 157.177 2014.24 158.195 2014.42 158.694C2014.79 159.882 2015.67 162.04 2015.83 162.261C2016.04 162.537 2019.11 161.276 2019.4 161.167C2019.68 161.058 2017.6 156.497 2017.48 156.122C2017.37 155.746 2014.05 156.997 2013.96 157.097Z" fill="#FFBF00"/>
<path d="M1011.96 185.959L1123.04 188.913L1092.73 162.232L1067.2 167.838L1056.31 175.041L1042.4 164.448L994.976 156.449L948.935 179.769L1011.96 185.959Z" fill="#1B3E4F"/>
<path d="M1103.68 181.921L1114.04 188.189L1123.04 188.913L1092.73 162.232L1067.2 167.838L1073.14 175.421L1100.52 186.543L1105 186.346L1103.68 181.921Z" fill="url(#paint14_linear_294_6261)" fill-opacity="0.6"/>
<path d="M992.016 165.546L999.071 173.08L1015.95 174.578L1073.58 185.488L1056.21 172.805L1042.4 164.448L994.977 156.45L989.483 158.933L1007.72 165.975L992.016 165.546Z" fill="url(#paint15_linear_294_6261)"/>
<path d="M992.016 165.546L999.071 173.08L1015.95 174.578L1073.58 185.488L1056.21 172.805L1042.4 164.448L994.977 156.45L989.483 158.933L1007.72 165.975L992.016 165.546Z" fill="url(#paint16_linear_294_6261)" fill-opacity="0.6"/>
</g>
<defs>
<filter id="filter0_i_294_6261" x="1002.77" y="116.041" width="64.9563" height="13.6655" filterUnits="userSpaceOnUse" color-interpolation-filters="sRGB">
<feFlood flood-opacity="0" result="BackgroundImageFix"/>
<feBlend mode="normal" in="SourceGraphic" in2="BackgroundImageFix" result="shape"/>
<feColorMatrix in="SourceAlpha" type="matrix" values="0 0 0 0 0 0 0 0 0 0 0 0 0 0 0 0 0 0 127 0" result="hardAlpha"/>
<feOffset dx="-0.22883" dy="0.68649"/>
<feComposite in2="hardAlpha" operator="arithmetic" k2="-1" k3="1"/>
<feColorMatrix type="matrix" values="0 0 0 0 0.698039 0 0 0 0 0.156863 0 0 0 0 0 0 0 0 0.3 0"/>
<feBlend mode="normal" in2="shape" result="effect1_innerShadow_294_6261"/>
</filter>
<linearGradient id="paint0_linear_294_6261" x1="2118.99" y1="-39.7358" x2="2122.9" y2="250.337" gradientUnits="userSpaceOnUse">
<stop stop-color="#66C92D"/>
<stop offset="1" stop-color="#15824B"/>
</linearGradient>
<linearGradient id="paint1_linear_294_6261" x1="1848.47" y1="0.213385" x2="1954.54" y2="309.263" gradientUnits="userSpaceOnUse">
<stop stop-color="#1A834E"/>
<stop offset="1" stop-color="#1C4239"/>
</linearGradient>
<linearGradient id="paint2_linear_294_6261" x1="717.863" y1="-3.27441" x2="720.701" y2="223.796" gradientUnits="userSpaceOnUse">
<stop stop-color="#66C92D"/>
<stop offset="1" stop-color="#15824B"/>
</linearGradient>
<linearGradient id="paint3_linear_294_6261" x1="875.046" y1="23.1769" x2="778.538" y2="248.609" gradientUnits="userSpaceOnUse">
<stop stop-color="#1A834E"/>
<stop offset="1" stop-color="#1C4239"/>
</linearGradient>
<linearGradient id="paint4_linear_294_6261" x1="1500.38" y1="145.624" x2="1500.48" y2="215.262" gradientUnits="userSpaceOnUse">
<stop stop-color="#66C92D"/>
<stop offset="1" stop-color="#15824B"/>
</linearGradient>
<linearGradient id="paint5_linear_294_6261" x1="1841.1" y1="9.0742" x2="2009.89" y2="48.7829" gradientUnits="userSpaceOnUse">
<stop stop-color="#FEE774"/>
<stop offset="1" stop-color="#F7BB17"/>
</linearGradient>
<linearGradient id="paint6_linear_294_6261" x1="1901.37" y1="40.649" x2="1949.62" y2="232.198" gradientUnits="userSpaceOnUse">
<stop stop-color="#FFBF00"/>
<stop offset="1" stop-color="#CF7C00"/>
</linearGradient>
<linearGradient id="paint7_linear_294_6261" x1="1841.11" y1="9.0742" x2="2009.9" y2="48.7829" gradientUnits="userSpaceOnUse">
<stop stop-color="#FEE774"/>
<stop offset="1" stop-color="#F7BB17"/>
</linearGradient>
<linearGradient id="paint8_linear_294_6261" x1="1870.82" y1="33.3609" x2="1930.95" y2="198.34" gradientUnits="userSpaceOnUse">
<stop stop-color="#FFBF00"/>
<stop offset="1" stop-color="#CF7C00"/>
</linearGradient>
<linearGradient id="paint9_linear_294_6261" x1="1845.2" y1="-5.60994" x2="1939.82" y2="9.09022" gradientUnits="userSpaceOnUse">
<stop stop-color="#FEE774"/>
<stop offset="1" stop-color="#F7BB17"/>
</linearGradient>
<linearGradient id="paint10_linear_294_6261" x1="1867.18" y1="83.8805" x2="1933.95" y2="130.187" gradientUnits="userSpaceOnUse">
<stop stop-color="#FFBF00"/>
<stop offset="1" stop-color="#CF7C00"/>
</linearGradient>
<linearGradient id="paint11_linear_294_6261" x1="2003.24" y1="146.607" x2="2012.2" y2="190.166" gradientUnits="userSpaceOnUse">
<stop stop-color="#66BFCD"/>
<stop offset="1" stop-color="#1C7F8E"/>
</linearGradient>
<linearGradient id="paint12_linear_294_6261" x1="2004.53" y1="145.334" x2="2007.72" y2="158.951" gradientUnits="userSpaceOnUse">
<stop stop-color="#078BA8"/>
<stop offset="1" stop-color="#05637F"/>
</linearGradient>
<linearGradient id="paint13_linear_294_6261" x1="2004.53" y1="145.334" x2="2006.84" y2="156.58" gradientUnits="userSpaceOnUse">
<stop stop-color="#66BFCD"/>
<stop offset="1" stop-color="#1C7F8E"/>
</linearGradient>
<linearGradient id="paint14_linear_294_6261" x1="1092.93" y1="130.235" x2="1095.34" y2="184.793" gradientUnits="userSpaceOnUse">
<stop stop-color="#D6E9EB"/>
<stop offset="1" stop-color="#9BCCD4"/>
</linearGradient>
<linearGradient id="paint15_linear_294_6261" x1="1017.47" y1="107.272" x2="1035.83" y2="185.491" gradientUnits="userSpaceOnUse">
<stop stop-color="#3A6C74"/>
<stop offset="1" stop-color="#22535B"/>
</linearGradient>
<linearGradient id="paint16_linear_294_6261" x1="1029.04" y1="117.845" x2="1031.82" y2="181.132" gradientUnits="userSpaceOnUse">
<stop stop-color="#D6E9EB"/>
<stop offset="1" stop-color="#9BCCD4"/>
</linearGradient>
<clipPath id="clip0_294_6261">
<rect width="3000" height="205" fill="white"/>
</clipPath>
</defs>
</svg>
